<?xml version="1.0" encoding="UTF-8"?>
<svg width="430px" height="511px" viewBox="0 0 430 511" version="1.1" xmlns="http://www.w3.org/2000/svg" xmlns:xlink="http://www.w3.org/1999/xlink">
    <!-- Generator: Sketch 52.6 (67491) - http://www.bohemiancoding.com/sketch -->
    <title>security-icon</title>
    <desc>Created with Sketch.</desc>
    <g id="Page-1" stroke="none" stroke-width="1" fill="none" fill-rule="evenodd">
        <g id="appIcon" transform="translate(-41.000000, -1.000000)">
            <g id="security-icon" transform="translate(45.000000, 5.000000)">
                <path d="M0.875029153,123.205322 C35.8541529,134.480482 70.8332767,129.088976 105.8124,107.030804 C140.791524,84.9726313 175.770648,49.5811254 210.749772,0.856286215 C249.057553,51.497682 284.036677,86.7225212 315.687143,106.530804 C347.33761,126.339087 382.316733,131.563926 420.624514,122.205322 C414.236673,226.614252 395.219857,304.695744 363.574066,356.449798 C331.928276,408.203853 280.986844,456.624573 210.749772,501.711961 C140.512699,456.624573 89.571268,408.203853 57.9254775,356.449798 C26.2796871,304.695744 7.26287096,226.947585 0.875029153,123.205322 Z" id="Path" stroke="#FFFFFF" stroke-width="9" stroke-linecap="round" stroke-linejoin="round"></path>
                <g id="Group-2" transform="translate(79.000000, 114.000000)">
                    <path d="M214.481309,141 C218.176409,177.69385 219.837257,198.963507 219.463853,204.808969 C218.138225,225.561029 207.497471,240.763516 204.309911,250.416432 C190.972749,290.805477 162.643161,311 130.500026,311 C98.3564245,311 70.0266423,290.80489 56.6895597,250.414669 C53.5012618,240.75918 42.8602697,225.551205 41.5349035,204.790743 C41.1618393,198.947086 42.8229256,177.683505 46.5181622,141 L214.481309,141 Z" id="Path" stroke="#FFFFFF" stroke-width="4"></path>
                    <path d="M79.0449927,254.21359 C82.508951,256.317078 99.0363601,259.256554 105.745072,258.077684 C108.623731,257.571839 110.901845,256.955104 112.927306,256.191037 C113.776468,255.870707 114.538029,255.543737 115.468882,255.112017 C115.72223,254.994517 116.573374,254.594118 116.560318,254.600231 C116.984083,254.401842 117.300064,254.257694 117.610536,254.12282 C118.85943,253.58028 119.914836,253.245641 121.155169,253.039217 C125.814363,252.263801 134.90811,252.263801 140.407542,253.037306 C142.70507,253.360457 144.810245,254.006368 148.678465,255.434541 C148.948375,255.534273 148.948375,255.534273 149.218031,255.634079 C153.288055,257.140568 155.039552,257.707023 157.1725,258.082165 C165.217834,259.497175 180.824845,257.167077 184.022396,254.193245 C183.606389,254.311655 183.148761,254.445591 183.022497,254.479414 C180.113007,255.258801 177.505459,255.268041 174.821268,253.983444 C169.821767,251.590789 163.889396,247.850091 160.587149,245.130259 C160.062101,244.697813 159.499782,244.188477 158.753098,243.479099 C158.520869,243.258472 157.182211,241.970902 156.784704,241.595266 C153.983065,238.947771 152.031657,237.526995 150.060584,236.973861 C147.944743,236.380101 146.719028,236.380101 139.799969,236.745533 C136.631086,236.912898 134.264109,236.992457 131.499856,236.992457 C128.740025,236.992457 126.349715,236.913861 123.029611,236.745588 C115.817823,236.380071 114.390139,236.380071 112.266031,236.973988 C110.33162,237.514865 108.740108,238.776239 106.021251,241.580285 C105.881445,241.724472 105.37698,242.246509 105.40683,242.215649 C105.160381,242.47044 104.975322,242.66074 104.794466,242.844889 C104.330852,243.316943 103.941847,243.699781 103.567742,244.048348 C103.117656,244.467708 102.698696,244.827764 102.29136,245.140976 C98.6250669,247.960085 95.021588,250.294562 90.4644457,252.685641 C89.8451083,253.010601 89.2012213,253.286124 88.5341742,253.515268 C85.899672,254.420273 83.4044117,254.553305 80.1274006,254.298731 C80.0197993,254.290372 79.3041441,254.232255 79.1284218,254.219496 C79.0997632,254.217415 79.0719651,254.215447 79.0449927,254.21359 Z" id="Path-4" stroke="#FFFFFF" fill="#FFFFFF"></path>
                    <path d="M45.6823302,141.268899 C43.3670144,143.089633 41.3337742,144 39.5826095,144 C37.8314448,144 36.0802801,143.089633 34.3291155,141.268899 C12.9121033,118.273351 1.65689909,104.548269 0.563502854,100.093655 C-1.0765915,93.4117345 29.5795605,49.0671618 31.5287923,45.2964398 C33.4780241,41.5257179 31.6017784,38.448346 34.3291155,34.7752367 C37.0564525,31.1021275 41.3655223,28.6700429 44.8361035,27.3744864 C48.3066847,26.07893 62.7762836,23.7617972 82.7981575,16.681904 C102.820031,9.60201072 118.935365,1.15415985 120.760211,0.527120348 C121.976776,0.109094015 124.964915,-0.060299322 129.72463,0.0189403366 C134.806374,0.0315612112 137.853254,0.200954548 138.865271,0.527120348 C140.383296,1.01636905 154.436416,8.32873792 179.717703,16.6111328 C204.998989,24.8935276 217.400616,26.2417813 220.43739,27.3744864 C223.474165,28.5071916 226.224366,31.2053195 228.415539,34.7752367 C230.606711,38.345154 230.091006,42.7157341 231.43767,45.2964398 C232.784334,47.8771455 262.5,94.126314 262.5,100.093655 C262.5,104.071883 250.562489,117.796964 226.687468,141.268899 C225.252221,143.089633 223.514454,144 221.474165,144 C219.433876,144 217.355356,143.089633 215.238603,141.268899 L45.6823302,141.268899 Z" id="Path-6" stroke="#FFFFFF" fill="#FFFFFF"></path>
                    <path d="M43.5926289,140.701357 C43.5926289,137.259057 87.6984472,124 131.804266,124 C175.910084,124 217.232553,136.813596 217.232553,140.701357 C217.232553,144.589118 196.510191,174 131.804266,174 C67.0983399,174 43.5926289,144.143657 43.5926289,140.701357 Z" id="Path-5" stroke="#2D2D2D" fill="#2D2D2D"></path>
                    <path d="M44.2073207,139.999997 C45.4007428,140.007619 86.5116812,126.86047 129.925905,126.86047 C173.34013,126.86047 215.012691,140.00738 216.175823,139.999997 C216.951244,139.995075 216.951244,135.432739 216.175823,126.31299 C187.618694,108.10433 158.868722,99 129.925905,99 C100.983089,99 72.3672331,108.10433 44.078337,126.31299 C43.3687114,135.43258 43.411706,139.994915 44.2073207,139.999997 Z" id="Path-3" fill="#1C1C1C"></path>
                    <path d="M104.697028,19.8715431 C104.811369,19.0689604 111.315895,11.6193172 111.711198,11.4528627 C112.106501,11.2864081 116.54422,13.4610381 121.377243,12.8478224 C126.210265,12.2346068 130.236379,9 131.043287,9 C131.850195,9 136.017219,12.2346068 140.991151,12.8478224 C145.965083,13.4610381 150.273052,11.1826744 150.939015,11.4528627 C151.604977,11.7230509 158.174092,19.0683998 158.303278,19.8715431 C158.432463,20.6746863 153.917027,25.264007 154.000932,30.4888 C154.061373,34.2524708 157.605379,41.1088814 158.517176,44.9976646 C159.739658,50.2115063 158.340417,54.8029604 157.621704,56.8015767 C152.00198,72.4290471 138.004082,75 131.500153,75 C124.996135,75 110.998162,72.4288364 105.378374,56.8009448 C104.659718,54.8024551 103.260328,50.2114197 104.482772,44.9979737 C105.394655,41.1090008 108.938806,34.2523012 108.999274,30.4884177 C109.083211,25.2637266 104.582687,20.6741257 104.697028,19.8715431 Z" id="Path-10" fill="#000000"></path>
                    <g id="Group" transform="translate(37.500000, 78.000000)" fill="#000000">
                        <path d="M6.715042,48.9483155 C8.91845503,49.1420942 10.8604898,52.8720918 10.3547584,56.1719474 C9.84902687,59.4718031 6.99550481,61.9187254 4.75738035,61.721894 C2.51925589,61.5250625 0.29997928,58.8535775 0.839215744,55.3351047 C1.37845221,51.8166319 4.51162897,48.7545367 6.715042,48.9483155 Z" id="Path-7"></path>
                        <path d="M180.469302,48.9483155 C182.672715,49.1420942 184.614749,52.8720918 184.109018,56.1719474 C183.603286,59.4718031 180.749764,61.9187254 178.51164,61.721894 C176.273515,61.5250625 174.054239,58.8535775 174.593475,55.3351047 C175.132712,51.8166319 178.265889,48.7545367 180.469302,48.9483155 Z" id="Path-7" transform="translate(179.350816, 55.336285) scale(-1, 1) translate(-179.350816, -55.336285) "></path>
                        <path d="M6.88583246,50.9508265 C6.64434856,38.8628419 6.64434856,32.6128319 6.88583246,32.2007965 C7.2480583,31.5827433 50.1245399,0.0158791133 93.3632474,0.0158791133 C136.601955,0.0158791133 179.293168,31.3960975 179.840662,32.2007965 C180.205659,32.7372624 180.205659,38.9872725 179.840662,50.9508265 C151.014857,40.2225207 122.189052,34.8583678 93.3632474,34.8583678 C64.5374424,34.8583678 35.7116374,40.2225207 6.88583246,50.9508265 Z" id="Path-8"></path>
                    </g>
                </g>
            </g>
        </g>
    </g>
</svg>